<svg id="Layer_1" data-name="Layer 1" xmlns="http://www.w3.org/2000/svg" viewBox="0 0 36 36.49"><defs><style>.cls-1{fill:#585858;}</style></defs><title>github</title><path class="cls-1" d="M33,0H0V33a2.65,2.65,0,0,0,3,3H34c1.1,0,2,1.1,2,0V3A2.65,2.65,0,0,0,33,0ZM28.3,26.06A12.47,12.47,0,0,1,22,30.82a.7.7,0,0,1-.66-.12.71.71,0,0,1-.2-.51V26.57a3.08,3.08,0,0,0-.87-2.43,12.07,12.07,0,0,0,1.7-.31,6.5,6.5,0,0,0,1.56-.67A4.7,4.7,0,0,0,24.91,22a5.39,5.39,0,0,0,.87-1.8,8.81,8.81,0,0,0,.34-2.58,5.07,5.07,0,0,0-1.31-3.54,4.7,4.7,0,0,0-.13-3.5,2.11,2.11,0,0,0-1.34.19,8.39,8.39,0,0,0-1.53.76l-.63.41a11.46,11.46,0,0,0-6.36,0c-.18-.13-.41-.28-.71-.46a8.22,8.22,0,0,0-1.38-.66,2.29,2.29,0,0,0-1.43-.24,4.79,4.79,0,0,0-.11,3.5,5.07,5.07,0,0,0-1.31,3.54,8.74,8.74,0,0,0,.34,2.57,5.39,5.39,0,0,0,.87,1.8,4.38,4.38,0,0,0,1.33,1.15,6.85,6.85,0,0,0,1.56.67,10.84,10.84,0,0,0,1.7.3,2.88,2.88,0,0,0-.81,1.77,3.17,3.17,0,0,1-.75.26,4.39,4.39,0,0,1-.94.08,1.94,1.94,0,0,1-1.09-.36,3,3,0,0,1-.92-1.08,2.86,2.86,0,0,0-.8-.89,2.42,2.42,0,0,0-.83-.41l-.33-.05a.94.94,0,0,0-.48.08.14.14,0,0,0-.08.19A.79.79,0,0,0,8.8,24l.21.21.12.09a2,2,0,0,1,.72.65,4.22,4.22,0,0,1,.52.87l.17.4a2.18,2.18,0,0,0,.73,1.05,2.44,2.44,0,0,0,1.11.51,5.84,5.84,0,0,0,1.15.12,4.12,4.12,0,0,0,.92-.06l.38-.06c0,.43,0,.94,0,1.52s0,.89,0,.93a.65.65,0,0,1-.22.51.7.7,0,0,1-.66.12A12.47,12.47,0,0,1,7.7,26.06a13.08,13.08,0,0,1-2.43-7.74A13.21,13.21,0,0,1,7,11.71a12.83,12.83,0,0,1,4.63-4.79,12.42,12.42,0,0,1,12.78,0A12.83,12.83,0,0,1,29,11.71a13.21,13.21,0,0,1,1.71,6.61A13.08,13.08,0,0,1,28.3,26.06Z"/></svg>