<svg id="Layer_1" data-name="Layer 1" xmlns="http://www.w3.org/2000/svg" viewBox="0 0 36 36.49"><defs><style>.cls-1{fill:#585858;}</style></defs><title>linkedin</title><path class="cls-1" d="M33,0H0V33a2.65,2.65,0,0,0,3,3H34c1.1,0,2,1.1,2,0V3A2.65,2.65,0,0,0,33,0ZM12,29.11H7.38V15.16H12ZM9.66,12.48a2.8,2.8,0,1,1,2.81-2.77A2.79,2.79,0,0,1,9.66,12.48ZM29.1,29.11H24.45v-8a2.33,2.33,0,0,0-4.63-.46q0,.3,0,.6v7.9H15.16V15.16H19.8v1.69a13.84,13.84,0,0,1,1.29-1.14,4.82,4.82,0,0,1,6.07.42,5.28,5.28,0,0,1,1.95,4.15c0,2.87,0,5.74,0,8.62A1.7,1.7,0,0,1,29.1,29.11Z"/></svg>