<svg id="Layer_1" data-name="Layer 1" xmlns="http://www.w3.org/2000/svg" viewBox="0 0 36 36.49"><defs><style>.cls-1{fill:#585858;}</style></defs><title>mail</title><path class="cls-1" d="M33,0H0V33a2.65,2.65,0,0,0,3,3H34c1.1,0,2,1.1,2,0V3A2.65,2.65,0,0,0,33,0ZM8,10.1a.58.58,0,0,1,.57-.36H27.22a1.58,1.58,0,0,1,.38,0,.62.62,0,0,1,.21,1.05c-.32.34-.66.66-1,1L18.59,20a.3.3,0,0,1-.08.08.64.64,0,0,1-1,0l-1.88-1.88L8.27,10.9l-.14-.15A.6.6,0,0,1,8,10.1ZM29.81,24.52a1.6,1.6,0,0,1-1.74,1.74H18c-3.35,0-6.7,0-10,0a1.62,1.62,0,0,1-1.67-1.17,2,2,0,0,1-.06-.55c0-4,0-8.06,0-12.1,0-.21,0-.4.26-.49s.36,0,.5.18l9.54,9.54a2,2,0,0,0,3,0Q24.28,16.9,29,12.15a.3.3,0,0,1,.08-.08.36.36,0,0,1,.43-.12.38.38,0,0,1,.25.4c0,.75,0,1.49,0,2.24Z"/></svg>